# xmcd
#
# Track frame offsets: 
#        150
#        11619
#        32613
#        49348
#        65615
#        86931
#        101156
#        121322
#        134202
#        166853
#        181388
#
# Disc length: 2640 seconds
#
# Revision: 0
# Processed by: cddbd v1.5.2PL0 Copyright (c) Steve Scherf et al.
# Submitted via: ExactAudioCopyFreeDBPlugin 1.0
#
DISCID=9d0a4e0b
DTITLE=Legacy Five - Just Stand
DYEAR=2009
DGENRE=Gospel
TTITLE0=New Born Feeling
TTITLE1=Great Is Thy Faithfulness
TTITLE2=One Thing God Can't Do
TTITLE3=Just Stand
TTITLE4=Faithful To The Cross
TTITLE5=Above All Circumstances
TTITLE6=When They Found Nothing
TTITLE7=My Soul Is Firmly Anchored
TTITLE8=Statement Of Faith (Legacy Five, The Booth Brothers, The Hoppe
TTITLE8=rs and Greater Vision)
TTITLE9=Thankful For The Change
TTITLE10='Till We Meet Again
EXTD=
EXTT0=
EXTT1=
EXTT2=
EXTT3=
EXTT4=
EXTT5=
EXTT6=
EXTT7=
EXTT8=
EXTT9=
EXTT10=
PLAYORDER=
